<?xml version="1.0" encoding="us-ascii" standalone="no"?><svg xmlns="http://www.w3.org/2000/svg" xmlns:xlink="http://www.w3.org/1999/xlink" contentStyleType="text/css" height="911px" preserveAspectRatio="none" style="width:3053px;height:911px;background:#FFFFFF;" version="1.1" viewBox="0 0 3053 911" width="3053px" zoomAndPan="magnify"><defs/><g><!--cluster Frontend--><g id="cluster_Frontend"><path d="M8.5,6 L74.5,6 A3.75,3.75 0 0 1 77,8.5 L84,29.6094 L2253.5,29.6094 A2.5,2.5 0 0 1 2256,32.1094 L2256,808.5 A2.5,2.5 0 0 1 2253.5,811 L8.5,811 A2.5,2.5 0 0 1 6,808.5 L6,8.5 A2.5,2.5 0 0 1 8.5,6 " fill="none" style="stroke:#000000;stroke-width:1.5;"/><line style="stroke:#000000;stroke-width:1.5;" x1="6" x2="84" y1="29.6094" y2="29.6094"/><text fill="#000000" font-family="sans-serif" font-size="14" font-weight="bold" lengthAdjust="spacing" textLength="65" x="10" y="22.5332">Frontend</text></g><!--cluster Pages--><g id="cluster_Pages"><path d="M40.5,162 L84.5,162 A3.75,3.75 0 0 1 87,164.5 L94,185.6094 L851.5,185.6094 A2.5,2.5 0 0 1 854,188.1094 L854,776.5 A2.5,2.5 0 0 1 851.5,779 L40.5,779 A2.5,2.5 0 0 1 38,776.5 L38,164.5 A2.5,2.5 0 0 1 40.5,162 " fill="none" style="stroke:#000000;stroke-width:1.5;"/><line style="stroke:#000000;stroke-width:1.5;" x1="38" x2="94" y1="185.6094" y2="185.6094"/><text fill="#000000" font-family="sans-serif" font-size="14" font-weight="bold" lengthAdjust="spacing" textLength="43" x="42" y="178.5332">Pages</text></g><!--cluster UserControls--><g id="cluster_UserControls"><path d="M1265.5,309 L1359.5,309 A3.75,3.75 0 0 1 1362,311.5 L1369,332.6094 L1533.5,332.6094 A2.5,2.5 0 0 1 1536,335.1094 L1536,422.5 A2.5,2.5 0 0 1 1533.5,425 L1265.5,425 A2.5,2.5 0 0 1 1263,422.5 L1263,311.5 A2.5,2.5 0 0 1 1265.5,309 " fill="none" style="stroke:#000000;stroke-width:1.5;"/><line style="stroke:#000000;stroke-width:1.5;" x1="1263" x2="1369" y1="332.6094" y2="332.6094"/><text fill="#000000" font-family="sans-serif" font-size="14" font-weight="bold" lengthAdjust="spacing" textLength="93" x="1267" y="325.5332">UserControls</text></g><!--cluster ViewModels--><g id="cluster_ViewModels"><path d="M1578.5,309 L1664.5,309 A3.75,3.75 0 0 1 1667,311.5 L1674,332.6094 L2221.5,332.6094 A2.5,2.5 0 0 1 2224,335.1094 L2224,776.5 A2.5,2.5 0 0 1 2221.5,779 L1578.5,779 A2.5,2.5 0 0 1 1576,776.5 L1576,311.5 A2.5,2.5 0 0 1 1578.5,309 " fill="none" style="stroke:#000000;stroke-width:1.5;"/><line style="stroke:#000000;stroke-width:1.5;" x1="1576" x2="1674" y1="332.6094" y2="332.6094"/><text fill="#000000" font-family="sans-serif" font-size="14" font-weight="bold" lengthAdjust="spacing" textLength="85" x="1580" y="325.5332">ViewModels</text></g><!--cluster Backend--><g id="cluster_Backend"><path d="M2282.5,170 L2344.5,170 A3.75,3.75 0 0 1 2347,172.5 L2354,193.6094 L2901.5,193.6094 A2.5,2.5 0 0 1 2904,196.1094 L2904,808.5 A2.5,2.5 0 0 1 2901.5,811 L2282.5,811 A2.5,2.5 0 0 1 2280,808.5 L2280,172.5 A2.5,2.5 0 0 1 2282.5,170 " fill="none" style="stroke:#000000;stroke-width:1.5;"/><line style="stroke:#000000;stroke-width:1.5;" x1="2280" x2="2354" y1="193.6094" y2="193.6094"/><text fill="#000000" font-family="sans-serif" font-size="14" font-weight="bold" lengthAdjust="spacing" textLength="61" x="2284" y="186.5332">Backend</text></g><!--cluster swagger_server--><g id="cluster_swagger_server"><path d="M2314.5,348.64 L2430.5,348.64 A3.75,3.75 0 0 1 2433,351.14 L2440,372.2494 L2869.5,372.2494 A2.5,2.5 0 0 1 2872,374.7494 L2872,611.5 A2.5,2.5 0 0 1 2869.5,614 L2314.5,614 A2.5,2.5 0 0 1 2312,611.5 L2312,351.14 A2.5,2.5 0 0 1 2314.5,348.64 " fill="none" style="stroke:#000000;stroke-width:1.5;"/><line style="stroke:#000000;stroke-width:1.5;" x1="2312" x2="2440" y1="372.2494" y2="372.2494"/><text fill="#000000" font-family="sans-serif" font-size="14" font-weight="bold" lengthAdjust="spacing" textLength="115" x="2316" y="365.1732">swagger_server</text></g><!--cluster swagger--><g id="cluster_swagger"><path d="M2684.5,482 L2745.5,482 A3.75,3.75 0 0 1 2748,484.5 L2755,505.6094 L2837.5,505.6094 A2.5,2.5 0 0 1 2840,508.1094 L2840,579.5 A2.5,2.5 0 0 1 2837.5,582 L2684.5,582 A2.5,2.5 0 0 1 2682,579.5 L2682,484.5 A2.5,2.5 0 0 1 2684.5,482 " fill="none" style="stroke:#000000;stroke-width:1.5;"/><line style="stroke:#000000;stroke-width:1.5;" x1="2682" x2="2755" y1="505.6094" y2="505.6094"/><text fill="#000000" font-family="sans-serif" font-size="14" font-weight="bold" lengthAdjust="spacing" textLength="60" x="2686" y="498.5332">swagger</text></g><!--cluster services--><g id="cluster_services"><path d="M2383.5,663 L2445.5,663 A3.75,3.75 0 0 1 2448,665.5 L2455,686.6094 L2591.5,686.6094 A2.5,2.5 0 0 1 2594,689.1094 L2594,776.5 A2.5,2.5 0 0 1 2591.5,779 L2383.5,779 A2.5,2.5 0 0 1 2381,776.5 L2381,665.5 A2.5,2.5 0 0 1 2383.5,663 " fill="none" style="stroke:#000000;stroke-width:1.5;"/><line style="stroke:#000000;stroke-width:1.5;" x1="2381" x2="2455" y1="686.6094" y2="686.6094"/><text fill="#000000" font-family="sans-serif" font-size="14" font-weight="bold" lengthAdjust="spacing" textLength="61" x="2385" y="679.5332">services</text></g><!--entity MainWindow.xaml--><g id="elem_MainWindow.xaml"><rect fill="#F1F1F1" height="47.6094" rx="2.5" ry="2.5" style="stroke:#181818;stroke-width:0.5;" width="151" x="1797.5" y="42"/><rect fill="#F1F1F1" height="10" style="stroke:#181818;stroke-width:0.5;" width="15" x="1928.5" y="47"/><rect fill="#F1F1F1" height="2" style="stroke:#181818;stroke-width:0.5;" width="4" x="1926.5" y="49"/><rect fill="#F1F1F1" height="2" style="stroke:#181818;stroke-width:0.5;" width="4" x="1926.5" y="53"/><text fill="#000000" font-family="sans-serif" font-size="14" lengthAdjust="spacing" textLength="111" x="1812.5" y="76.5332">MainWindow.xaml</text></g><!--entity MainWindow.xaml.cs--><g id="elem_MainWindow.xaml.cs"><rect fill="#F1F1F1" height="47.6094" rx="2.5" ry="2.5" style="stroke:#181818;stroke-width:0.5;" width="169" x="1052.5" y="42"/><rect fill="#F1F1F1" height="10" style="stroke:#181818;stroke-width:0.5;" width="15" x="1201.5" y="47"/><rect fill="#F1F1F1" height="2" style="stroke:#181818;stroke-width:0.5;" width="4" x="1199.5" y="49"/><rect fill="#F1F1F1" height="2" style="stroke:#181818;stroke-width:0.5;" width="4" x="1199.5" y="53"/><text fill="#000000" font-family="sans-serif" font-size="14" lengthAdjust="spacing" textLength="129" x="1067.5" y="76.5332">MainWindow.xaml.cs</text></g><!--entity Models--><g id="elem_Models"><rect fill="#F1F1F1" height="47.6094" rx="2.5" ry="2.5" style="stroke:#181818;stroke-width:0.5;" width="85" x="878.5" y="353"/><rect fill="#F1F1F1" height="10" style="stroke:#181818;stroke-width:0.5;" width="15" x="943.5" y="358"/><rect fill="#F1F1F1" height="2" style="stroke:#181818;stroke-width:0.5;" width="4" x="941.5" y="360"/><rect fill="#F1F1F1" height="2" style="stroke:#181818;stroke-width:0.5;" width="4" x="941.5" y="364"/><text fill="#000000" font-family="sans-serif" font-size="14" lengthAdjust="spacing" textLength="45" x="893.5" y="387.5332">Models</text></g><!--entity Resources--><g id="elem_Resources"><rect fill="#F1F1F1" height="47.6094" rx="2.5" ry="2.5" style="stroke:#181818;stroke-width:0.5;" width="108" x="999" y="353"/><rect fill="#F1F1F1" height="10" style="stroke:#181818;stroke-width:0.5;" width="15" x="1087" y="358"/><rect fill="#F1F1F1" height="2" style="stroke:#181818;stroke-width:0.5;" width="4" x="1085" y="360"/><rect fill="#F1F1F1" height="2" style="stroke:#181818;stroke-width:0.5;" width="4" x="1085" y="364"/><text fill="#000000" font-family="sans-serif" font-size="14" lengthAdjust="spacing" textLength="68" x="1014" y="387.5332">Resources</text></g><!--entity Services--><g id="elem_Services"><rect fill="#F1F1F1" height="47.6094" rx="2.5" ry="2.5" style="stroke:#181818;stroke-width:0.5;" width="94" x="1142" y="353"/><rect fill="#F1F1F1" height="10" style="stroke:#181818;stroke-width:0.5;" width="15" x="1216" y="358"/><rect fill="#F1F1F1" height="2" style="stroke:#181818;stroke-width:0.5;" width="4" x="1214" y="360"/><rect fill="#F1F1F1" height="2" style="stroke:#181818;stroke-width:0.5;" width="4" x="1214" y="364"/><text fill="#000000" font-family="sans-serif" font-size="14" lengthAdjust="spacing" textLength="54" x="1157" y="387.5332">Services</text></g><!--entity LoginPage.xaml--><g id="elem_LoginPage.xaml"><rect fill="#F1F1F1" height="47.6094" rx="2.5" ry="2.5" style="stroke:#181818;stroke-width:0.5;" width="140" x="65" y="206"/><rect fill="#F1F1F1" height="10" style="stroke:#181818;stroke-width:0.5;" width="15" x="185" y="211"/><rect fill="#F1F1F1" height="2" style="stroke:#181818;stroke-width:0.5;" width="4" x="183" y="213"/><rect fill="#F1F1F1" height="2" style="stroke:#181818;stroke-width:0.5;" width="4" x="183" y="217"/><text fill="#000000" font-family="sans-serif" font-size="14" lengthAdjust="spacing" textLength="100" x="80" y="240.5332">LoginPage.xaml</text></g><!--entity LoginPage.xaml.cs--><g id="elem_LoginPage.xaml.cs"><rect fill="#F1F1F1" height="47.6094" rx="2.5" ry="2.5" style="stroke:#181818;stroke-width:0.5;" width="158" x="240" y="206"/><rect fill="#F1F1F1" height="10" style="stroke:#181818;stroke-width:0.5;" width="15" x="378" y="211"/><rect fill="#F1F1F1" height="2" style="stroke:#181818;stroke-width:0.5;" width="4" x="376" y="213"/><rect fill="#F1F1F1" height="2" style="stroke:#181818;stroke-width:0.5;" width="4" x="376" y="217"/><text fill="#000000" font-family="sans-serif" font-size="14" lengthAdjust="spacing" textLength="118" x="255" y="240.5332">LoginPage.xaml.cs</text></g><!--entity RegisterPage.xaml--><g id="elem_RegisterPage.xaml"><rect fill="#F1F1F1" height="47.6094" rx="2.5" ry="2.5" style="stroke:#181818;stroke-width:0.5;" width="158" x="433" y="206"/><rect fill="#F1F1F1" height="10" style="stroke:#181818;stroke-width:0.5;" width="15" x="571" y="211"/><rect fill="#F1F1F1" height="2" style="stroke:#181818;stroke-width:0.5;" width="4" x="569" y="213"/><rect fill="#F1F1F1" height="2" style="stroke:#181818;stroke-width:0.5;" width="4" x="569" y="217"/><text fill="#000000" font-family="sans-serif" font-size="14" lengthAdjust="spacing" textLength="118" x="448" y="240.5332">RegisterPage.xaml</text></g><!--entity RegisterPage.xaml.cs--><g id="elem_RegisterPage.xaml.cs"><rect fill="#F1F1F1" height="47.6094" rx="2.5" ry="2.5" style="stroke:#181818;stroke-width:0.5;" width="176" x="626" y="206"/><rect fill="#F1F1F1" height="10" style="stroke:#181818;stroke-width:0.5;" width="15" x="782" y="211"/><rect fill="#F1F1F1" height="2" style="stroke:#181818;stroke-width:0.5;" width="4" x="780" y="213"/><rect fill="#F1F1F1" height="2" style="stroke:#181818;stroke-width:0.5;" width="4" x="780" y="217"/><text fill="#000000" font-family="sans-serif" font-size="14" lengthAdjust="spacing" textLength="136" x="641" y="240.5332">RegisterPage.xaml.cs</text></g><!--entity MainPage.xaml--><g id="elem_MainPage.xaml"><rect fill="#F1F1F1" height="47.6094" rx="2.5" ry="2.5" style="stroke:#181818;stroke-width:0.5;" width="135" x="67.5" y="353"/><rect fill="#F1F1F1" height="10" style="stroke:#181818;stroke-width:0.5;" width="15" x="182.5" y="358"/><rect fill="#F1F1F1" height="2" style="stroke:#181818;stroke-width:0.5;" width="4" x="180.5" y="360"/><rect fill="#F1F1F1" height="2" style="stroke:#181818;stroke-width:0.5;" width="4" x="180.5" y="364"/><text fill="#000000" font-family="sans-serif" font-size="14" lengthAdjust="spacing" textLength="95" x="82.5" y="387.5332">MainPage.xaml</text></g><!--entity MainPage.xaml.cs--><g id="elem_MainPage.xaml.cs"><rect fill="#F1F1F1" height="47.6094" rx="2.5" ry="2.5" style="stroke:#181818;stroke-width:0.5;" width="153" x="237.5" y="353"/><rect fill="#F1F1F1" height="10" style="stroke:#181818;stroke-width:0.5;" width="15" x="370.5" y="358"/><rect fill="#F1F1F1" height="2" style="stroke:#181818;stroke-width:0.5;" width="4" x="368.5" y="360"/><rect fill="#F1F1F1" height="2" style="stroke:#181818;stroke-width:0.5;" width="4" x="368.5" y="364"/><text fill="#000000" font-family="sans-serif" font-size="14" lengthAdjust="spacing" textLength="113" x="252.5" y="387.5332">MainPage.xaml.cs</text></g><!--entity ExplorePage.xaml--><g id="elem_ExplorePage.xaml"><rect fill="#F1F1F1" height="47.6094" rx="2.5" ry="2.5" style="stroke:#181818;stroke-width:0.5;" width="152" x="426" y="353"/><rect fill="#F1F1F1" height="10" style="stroke:#181818;stroke-width:0.5;" width="15" x="558" y="358"/><rect fill="#F1F1F1" height="2" style="stroke:#181818;stroke-width:0.5;" width="4" x="556" y="360"/><rect fill="#F1F1F1" height="2" style="stroke:#181818;stroke-width:0.5;" width="4" x="556" y="364"/><text fill="#000000" font-family="sans-serif" font-size="14" lengthAdjust="spacing" textLength="112" x="441" y="387.5332">ExplorePage.xaml</text></g><!--entity ExplorePage.xaml.cs--><g id="elem_ExplorePage.xaml.cs"><rect fill="#F1F1F1" height="47.6094" rx="2.5" ry="2.5" style="stroke:#181818;stroke-width:0.5;" width="170" x="613" y="353"/><rect fill="#F1F1F1" height="10" style="stroke:#181818;stroke-width:0.5;" width="15" x="763" y="358"/><rect fill="#F1F1F1" height="2" style="stroke:#181818;stroke-width:0.5;" width="4" x="761" y="360"/><rect fill="#F1F1F1" height="2" style="stroke:#181818;stroke-width:0.5;" width="4" x="761" y="364"/><text fill="#000000" font-family="sans-serif" font-size="14" lengthAdjust="spacing" textLength="130" x="628" y="387.5332">ExplorePage.xaml.cs</text></g><!--entity ProfilePage.xaml--><g id="elem_ProfilePage.xaml"><rect fill="#F1F1F1" height="47.6094" rx="2.5" ry="2.5" style="stroke:#181818;stroke-width:0.5;" width="145" x="62.5" y="518"/><rect fill="#F1F1F1" height="10" style="stroke:#181818;stroke-width:0.5;" width="15" x="187.5" y="523"/><rect fill="#F1F1F1" height="2" style="stroke:#181818;stroke-width:0.5;" width="4" x="185.5" y="525"/><rect fill="#F1F1F1" height="2" style="stroke:#181818;stroke-width:0.5;" width="4" x="185.5" y="529"/><text fill="#000000" font-family="sans-serif" font-size="14" lengthAdjust="spacing" textLength="105" x="77.5" y="552.5332">ProfilePage.xaml</text></g><!--entity ProfilePage.xaml.cs--><g id="elem_ProfilePage.xaml.cs"><rect fill="#F1F1F1" height="47.6094" rx="2.5" ry="2.5" style="stroke:#181818;stroke-width:0.5;" width="163" x="242.5" y="518"/><rect fill="#F1F1F1" height="10" style="stroke:#181818;stroke-width:0.5;" width="15" x="385.5" y="523"/><rect fill="#F1F1F1" height="2" style="stroke:#181818;stroke-width:0.5;" width="4" x="383.5" y="525"/><rect fill="#F1F1F1" height="2" style="stroke:#181818;stroke-width:0.5;" width="4" x="383.5" y="529"/><text fill="#000000" font-family="sans-serif" font-size="14" lengthAdjust="spacing" textLength="123" x="257.5" y="552.5332">ProfilePage.xaml.cs</text></g><!--entity FavoritesPage.xaml--><g id="elem_FavoritesPage.xaml"><rect fill="#F1F1F1" height="47.6094" rx="2.5" ry="2.5" style="stroke:#181818;stroke-width:0.5;" width="164" x="441" y="518"/><rect fill="#F1F1F1" height="10" style="stroke:#181818;stroke-width:0.5;" width="15" x="585" y="523"/><rect fill="#F1F1F1" height="2" style="stroke:#181818;stroke-width:0.5;" width="4" x="583" y="525"/><rect fill="#F1F1F1" height="2" style="stroke:#181818;stroke-width:0.5;" width="4" x="583" y="529"/><text fill="#000000" font-family="sans-serif" font-size="14" lengthAdjust="spacing" textLength="124" x="456" y="552.5332">FavoritesPage.xaml</text></g><!--entity FavoritesPage.xaml.cs--><g id="elem_FavoritesPage.xaml.cs"><rect fill="#F1F1F1" height="47.6094" rx="2.5" ry="2.5" style="stroke:#181818;stroke-width:0.5;" width="182" x="640" y="518"/><rect fill="#F1F1F1" height="10" style="stroke:#181818;stroke-width:0.5;" width="15" x="802" y="523"/><rect fill="#F1F1F1" height="2" style="stroke:#181818;stroke-width:0.5;" width="4" x="800" y="525"/><rect fill="#F1F1F1" height="2" style="stroke:#181818;stroke-width:0.5;" width="4" x="800" y="529"/><text fill="#000000" font-family="sans-serif" font-size="14" lengthAdjust="spacing" textLength="142" x="655" y="552.5332">FavoritesPage.xaml.cs</text></g><!--entity MapPage.xaml--><g id="elem_MapPage.xaml"><rect fill="#F1F1F1" height="47.6094" rx="2.5" ry="2.5" style="stroke:#181818;stroke-width:0.5;" width="132" x="69" y="707"/><rect fill="#F1F1F1" height="10" style="stroke:#181818;stroke-width:0.5;" width="15" x="181" y="712"/><rect fill="#F1F1F1" height="2" style="stroke:#181818;stroke-width:0.5;" width="4" x="179" y="714"/><rect fill="#F1F1F1" height="2" style="stroke:#181818;stroke-width:0.5;" width="4" x="179" y="718"/><text fill="#000000" font-family="sans-serif" font-size="14" lengthAdjust="spacing" textLength="92" x="84" y="741.5332">MapPage.xaml</text></g><!--entity MapPage.xaml.cs--><g id="elem_MapPage.xaml.cs"><rect fill="#F1F1F1" height="47.6094" rx="2.5" ry="2.5" style="stroke:#181818;stroke-width:0.5;" width="150" x="236" y="707"/><rect fill="#F1F1F1" height="10" style="stroke:#181818;stroke-width:0.5;" width="15" x="366" y="712"/><rect fill="#F1F1F1" height="2" style="stroke:#181818;stroke-width:0.5;" width="4" x="364" y="714"/><rect fill="#F1F1F1" height="2" style="stroke:#181818;stroke-width:0.5;" width="4" x="364" y="718"/><text fill="#000000" font-family="sans-serif" font-size="14" lengthAdjust="spacing" textLength="110" x="251" y="741.5332">MapPage.xaml.cs</text></g><!--entity MoreInfoPage.xaml--><g id="elem_MoreInfoPage.xaml"><rect fill="#F1F1F1" height="47.6094" rx="2.5" ry="2.5" style="stroke:#181818;stroke-width:0.5;" width="160" x="421" y="707"/><rect fill="#F1F1F1" height="10" style="stroke:#181818;stroke-width:0.5;" width="15" x="561" y="712"/><rect fill="#F1F1F1" height="2" style="stroke:#181818;stroke-width:0.5;" width="4" x="559" y="714"/><rect fill="#F1F1F1" height="2" style="stroke:#181818;stroke-width:0.5;" width="4" x="559" y="718"/><text fill="#000000" font-family="sans-serif" font-size="14" lengthAdjust="spacing" textLength="120" x="436" y="741.5332">MoreInfoPage.xaml</text></g><!--entity MoreInfoPage.xaml.cs--><g id="elem_MoreInfoPage.xaml.cs"><rect fill="#F1F1F1" height="47.6094" rx="2.5" ry="2.5" style="stroke:#181818;stroke-width:0.5;" width="178" x="616" y="707"/><rect fill="#F1F1F1" height="10" style="stroke:#181818;stroke-width:0.5;" width="15" x="774" y="712"/><rect fill="#F1F1F1" height="2" style="stroke:#181818;stroke-width:0.5;" width="4" x="772" y="714"/><rect fill="#F1F1F1" height="2" style="stroke:#181818;stroke-width:0.5;" width="4" x="772" y="718"/><text fill="#000000" font-family="sans-serif" font-size="14" lengthAdjust="spacing" textLength="138" x="631" y="741.5332">MoreInfoPage.xaml.cs</text></g><!--entity EventMiniViewUserControl--><g id="elem_EventMiniViewUserControl"><rect fill="#F1F1F1" height="47.6094" rx="2.5" ry="2.5" style="stroke:#181818;stroke-width:0.5;" width="205" x="1306.5" y="353"/><rect fill="#F1F1F1" height="10" style="stroke:#181818;stroke-width:0.5;" width="15" x="1491.5" y="358"/><rect fill="#F1F1F1" height="2" style="stroke:#181818;stroke-width:0.5;" width="4" x="1489.5" y="360"/><rect fill="#F1F1F1" height="2" style="stroke:#181818;stroke-width:0.5;" width="4" x="1489.5" y="364"/><text fill="#000000" font-family="sans-serif" font-size="14" lengthAdjust="spacing" textLength="165" x="1321.5" y="387.5332">EventMiniViewUserControl</text></g><!--entity MainViewModel.cs--><g id="elem_MainViewModel.cs"><rect fill="#F1F1F1" height="47.6094" rx="2.5" ry="2.5" style="stroke:#181818;stroke-width:0.5;" width="155" x="1619.5" y="353"/><rect fill="#F1F1F1" height="10" style="stroke:#181818;stroke-width:0.5;" width="15" x="1754.5" y="358"/><rect fill="#F1F1F1" height="2" style="stroke:#181818;stroke-width:0.5;" width="4" x="1752.5" y="360"/><rect fill="#F1F1F1" height="2" style="stroke:#181818;stroke-width:0.5;" width="4" x="1752.5" y="364"/><text fill="#000000" font-family="sans-serif" font-size="14" lengthAdjust="spacing" textLength="115" x="1634.5" y="387.5332">MainViewModel.cs</text></g><!--entity LoginViewModel.cs--><g id="elem_LoginViewModel.cs"><rect fill="#F1F1F1" height="47.6094" rx="2.5" ry="2.5" style="stroke:#181818;stroke-width:0.5;" width="160" x="1810" y="353"/><rect fill="#F1F1F1" height="10" style="stroke:#181818;stroke-width:0.5;" width="15" x="1950" y="358"/><rect fill="#F1F1F1" height="2" style="stroke:#181818;stroke-width:0.5;" width="4" x="1948" y="360"/><rect fill="#F1F1F1" height="2" style="stroke:#181818;stroke-width:0.5;" width="4" x="1948" y="364"/><text fill="#000000" font-family="sans-serif" font-size="14" lengthAdjust="spacing" textLength="120" x="1825" y="387.5332">LoginViewModel.cs</text></g><!--entity RegisterViewModel.cs--><g id="elem_RegisterViewModel.cs"><rect fill="#F1F1F1" height="47.6094" rx="2.5" ry="2.5" style="stroke:#181818;stroke-width:0.5;" width="178" x="2005" y="353"/><rect fill="#F1F1F1" height="10" style="stroke:#181818;stroke-width:0.5;" width="15" x="2163" y="358"/><rect fill="#F1F1F1" height="2" style="stroke:#181818;stroke-width:0.5;" width="4" x="2161" y="360"/><rect fill="#F1F1F1" height="2" style="stroke:#181818;stroke-width:0.5;" width="4" x="2161" y="364"/><text fill="#000000" font-family="sans-serif" font-size="14" lengthAdjust="spacing" textLength="138" x="2020" y="387.5332">RegisterViewModel.cs</text></g><!--entity ExploreViewModel.cs--><g id="elem_ExploreViewModel.cs"><rect fill="#F1F1F1" height="47.6094" rx="2.5" ry="2.5" style="stroke:#181818;stroke-width:0.5;" width="172" x="1608" y="518"/><rect fill="#F1F1F1" height="10" style="stroke:#181818;stroke-width:0.5;" width="15" x="1760" y="523"/><rect fill="#F1F1F1" height="2" style="stroke:#181818;stroke-width:0.5;" width="4" x="1758" y="525"/><rect fill="#F1F1F1" height="2" style="stroke:#181818;stroke-width:0.5;" width="4" x="1758" y="529"/><text fill="#000000" font-family="sans-serif" font-size="14" lengthAdjust="spacing" textLength="132" x="1623" y="552.5332">ExploreViewModel.cs</text></g><!--entity ProfileViewModel.cs--><g id="elem_ProfileViewModel.cs"><rect fill="#F1F1F1" height="47.6094" rx="2.5" ry="2.5" style="stroke:#181818;stroke-width:0.5;" width="165" x="1815.5" y="518"/><rect fill="#F1F1F1" height="10" style="stroke:#181818;stroke-width:0.5;" width="15" x="1960.5" y="523"/><rect fill="#F1F1F1" height="2" style="stroke:#181818;stroke-width:0.5;" width="4" x="1958.5" y="525"/><rect fill="#F1F1F1" height="2" style="stroke:#181818;stroke-width:0.5;" width="4" x="1958.5" y="529"/><text fill="#000000" font-family="sans-serif" font-size="14" lengthAdjust="spacing" textLength="125" x="1830.5" y="552.5332">ProfileViewModel.cs</text></g><!--entity FavoritesViewModel.cs--><g id="elem_FavoritesViewModel.cs"><rect fill="#F1F1F1" height="47.6094" rx="2.5" ry="2.5" style="stroke:#181818;stroke-width:0.5;" width="184" x="2016" y="518"/><rect fill="#F1F1F1" height="10" style="stroke:#181818;stroke-width:0.5;" width="15" x="2180" y="523"/><rect fill="#F1F1F1" height="2" style="stroke:#181818;stroke-width:0.5;" width="4" x="2178" y="525"/><rect fill="#F1F1F1" height="2" style="stroke:#181818;stroke-width:0.5;" width="4" x="2178" y="529"/><text fill="#000000" font-family="sans-serif" font-size="14" lengthAdjust="spacing" textLength="144" x="2031" y="552.5332">FavoritesViewModel.cs</text></g><!--entity MapViewModel.cs--><g id="elem_MapViewModel.cs"><rect fill="#F1F1F1" height="47.6094" rx="2.5" ry="2.5" style="stroke:#181818;stroke-width:0.5;" width="152" x="1618" y="707"/><rect fill="#F1F1F1" height="10" style="stroke:#181818;stroke-width:0.5;" width="15" x="1750" y="712"/><rect fill="#F1F1F1" height="2" style="stroke:#181818;stroke-width:0.5;" width="4" x="1748" y="714"/><rect fill="#F1F1F1" height="2" style="stroke:#181818;stroke-width:0.5;" width="4" x="1748" y="718"/><text fill="#000000" font-family="sans-serif" font-size="14" lengthAdjust="spacing" textLength="112" x="1633" y="741.5332">MapViewModel.cs</text></g><!--entity MoreInfoViewModel.cs--><g id="elem_MoreInfoViewModel.cs"><rect fill="#F1F1F1" height="47.6094" rx="2.5" ry="2.5" style="stroke:#181818;stroke-width:0.5;" width="180" x="1805" y="707"/><rect fill="#F1F1F1" height="10" style="stroke:#181818;stroke-width:0.5;" width="15" x="1965" y="712"/><rect fill="#F1F1F1" height="2" style="stroke:#181818;stroke-width:0.5;" width="4" x="1963" y="714"/><rect fill="#F1F1F1" height="2" style="stroke:#181818;stroke-width:0.5;" width="4" x="1963" y="718"/><text fill="#000000" font-family="sans-serif" font-size="14" lengthAdjust="spacing" textLength="140" x="1820" y="741.5332">MoreInfoViewModel.cs</text></g><!--entity Swagger API--><g id="elem_Swagger API"><rect fill="#F1F1F1" height="47.6094" rx="2.5" ry="2.5" style="stroke:#181818;stroke-width:0.5;" width="120" x="2337" y="206"/><rect fill="#F1F1F1" height="10" style="stroke:#181818;stroke-width:0.5;" width="15" x="2437" y="211"/><rect fill="#F1F1F1" height="2" style="stroke:#181818;stroke-width:0.5;" width="4" x="2435" y="213"/><rect fill="#F1F1F1" height="2" style="stroke:#181818;stroke-width:0.5;" width="4" x="2435" y="217"/><text fill="#000000" font-family="sans-serif" font-size="14" lengthAdjust="spacing" textLength="80" x="2352" y="240.5332">Swagger API</text></g><!--entity controllers--><g id="elem_controllers"><rect fill="#F1F1F1" height="47.6094" rx="2.5" ry="2.5" style="stroke:#181818;stroke-width:0.5;" width="106" x="2336" y="518"/><rect fill="#F1F1F1" height="10" style="stroke:#181818;stroke-width:0.5;" width="15" x="2422" y="523"/><rect fill="#F1F1F1" height="2" style="stroke:#181818;stroke-width:0.5;" width="4" x="2420" y="525"/><rect fill="#F1F1F1" height="2" style="stroke:#181818;stroke-width:0.5;" width="4" x="2420" y="529"/><text fill="#000000" font-family="sans-serif" font-size="14" lengthAdjust="spacing" textLength="66" x="2351" y="552.5332">controllers</text></g><!--entity models--><g id="elem_models"><rect fill="#F1F1F1" height="47.6094" rx="2.5" ry="2.5" style="stroke:#181818;stroke-width:0.5;" width="85" x="2477.5" y="518"/><rect fill="#F1F1F1" height="10" style="stroke:#181818;stroke-width:0.5;" width="15" x="2542.5" y="523"/><rect fill="#F1F1F1" height="2" style="stroke:#181818;stroke-width:0.5;" width="4" x="2540.5" y="525"/><rect fill="#F1F1F1" height="2" style="stroke:#181818;stroke-width:0.5;" width="4" x="2540.5" y="529"/><text fill="#000000" font-family="sans-serif" font-size="14" lengthAdjust="spacing" textLength="45" x="2492.5" y="552.5332">models</text></g><!--entity utils--><g id="elem_utils"><rect fill="#F1F1F1" height="47.6094" rx="2.5" ry="2.5" style="stroke:#181818;stroke-width:0.5;" width="65" x="2597.5" y="518"/><rect fill="#F1F1F1" height="10" style="stroke:#181818;stroke-width:0.5;" width="15" x="2642.5" y="523"/><rect fill="#F1F1F1" height="2" style="stroke:#181818;stroke-width:0.5;" width="4" x="2640.5" y="525"/><rect fill="#F1F1F1" height="2" style="stroke:#181818;stroke-width:0.5;" width="4" x="2640.5" y="529"/><text fill="#000000" font-family="sans-serif" font-size="14" lengthAdjust="spacing" textLength="25" x="2612.5" y="552.5332">utils</text></g><!--entity swagger.yaml--><g id="elem_swagger.yaml"><rect fill="#F1F1F1" height="47.6094" rx="2.5" ry="2.5" style="stroke:#181818;stroke-width:0.5;" width="126" x="2698" y="518"/><rect fill="#F1F1F1" height="10" style="stroke:#181818;stroke-width:0.5;" width="15" x="2804" y="523"/><rect fill="#F1F1F1" height="2" style="stroke:#181818;stroke-width:0.5;" width="4" x="2802" y="525"/><rect fill="#F1F1F1" height="2" style="stroke:#181818;stroke-width:0.5;" width="4" x="2802" y="529"/><text fill="#000000" font-family="sans-serif" font-size="14" lengthAdjust="spacing" textLength="86" x="2713" y="552.5332">swagger.yaml</text></g><!--entity event_fetcher.py--><g id="elem_event_fetcher.py"><rect fill="#F1F1F1" height="47.6094" rx="2.5" ry="2.5" style="stroke:#181818;stroke-width:0.5;" width="146" x="2424" y="707"/><rect fill="#F1F1F1" height="10" style="stroke:#181818;stroke-width:0.5;" width="15" x="2550" y="712"/><rect fill="#F1F1F1" height="2" style="stroke:#181818;stroke-width:0.5;" width="4" x="2548" y="714"/><rect fill="#F1F1F1" height="2" style="stroke:#181818;stroke-width:0.5;" width="4" x="2548" y="718"/><text fill="#000000" font-family="sans-serif" font-size="14" lengthAdjust="spacing" textLength="106" x="2439" y="741.5332">event_fetcher.py</text></g><!--entity Supabase DB--><g id="elem_Supabase DB"><rect fill="#F1F1F1" height="47.6094" rx="2.5" ry="2.5" style="stroke:#181818;stroke-width:0.5;" width="127" x="2920.5" y="707"/><rect fill="#F1F1F1" height="10" style="stroke:#181818;stroke-width:0.5;" width="15" x="3027.5" y="712"/><rect fill="#F1F1F1" height="2" style="stroke:#181818;stroke-width:0.5;" width="4" x="3025.5" y="714"/><rect fill="#F1F1F1" height="2" style="stroke:#181818;stroke-width:0.5;" width="4" x="3025.5" y="718"/><text fill="#000000" font-family="sans-serif" font-size="14" lengthAdjust="spacing" textLength="87" x="2935.5" y="741.5332">Supabase DB</text></g><!--entity Externe API--><g id="elem_Externe API"><rect fill="#F1F1F1" height="47.6094" rx="2.5" ry="2.5" style="stroke:#181818;stroke-width:0.5;" width="113" x="2332.5" y="858"/><rect fill="#F1F1F1" height="10" style="stroke:#181818;stroke-width:0.5;" width="15" x="2425.5" y="863"/><rect fill="#F1F1F1" height="2" style="stroke:#181818;stroke-width:0.5;" width="4" x="2423.5" y="865"/><rect fill="#F1F1F1" height="2" style="stroke:#181818;stroke-width:0.5;" width="4" x="2423.5" y="869"/><text fill="#000000" font-family="sans-serif" font-size="14" lengthAdjust="spacing" textLength="73" x="2347.5" y="892.5332">Externe API</text></g><!--link MainWindow.xaml.cs to Pages--><g id="link_MainWindow.xaml.cs_Pages"><path d="M1095.62,90.04 C1056.075,112.055 994.9875,146.0625 943.1425,174.9238 C917.22,189.3544 893.6081,202.4984 876.155,212.2136 C867.4284,217.0712 860.2416,221.0715 855.0754,223.9469 C854.7525,224.1266 859.6802,221.384 859.3732,221.5549 " fill="none" id="MainWindow.xaml.cs-to-Pages" style="stroke:#181818;stroke-width:1.0;"/><polygon fill="#181818" points="854.1305,224.4727,863.9398,223.591,858.4995,222.0412,860.0493,216.6008,854.1305,224.4727" style="stroke:#181818;stroke-width:1.0;"/></g><!--link Pages to UserControls--><g id="link_Pages_UserControls"><path d="M854.0757,230.87 C854.3028,230.8671 854.5343,230.8641 854.7704,230.8612 C855.2425,230.8554 855.7324,230.8495 856.2399,230.8437 C858.2697,230.8204 860.5801,230.7977 863.1515,230.7782 C873.4375,230.7002 887.9012,230.6728 905.2998,230.8606 C940.0972,231.2363 986.6344,232.4725 1034.9688,235.885 C1131.6375,242.71 1235.495,258.24 1267,293 C1270.0037,296.3138 1272.3388,300.042 1274.1229,304.0359 C1274.569,305.0343 1274.9806,306.0494 1275.3596,307.0787 C1275.5491,307.5934 1273.8369,302.4182 1274.0103,302.9397 " fill="none" id="Pages-to-UserControls" style="stroke:#181818;stroke-width:1.0;"/><polygon fill="#181818" points="1275.9039,308.6331,1276.8591,298.8307,1274.3259,303.8886,1269.268,301.3555,1275.9039,308.6331" style="stroke:#181818;stroke-width:1.0;"/></g><!--link Pages to ViewModels--><g id="link_Pages_ViewModels"><path d="M854.6178,231.3335 C859.6038,231.5327 866.647,231.8194 875.469,232.1916 C893.113,232.936 917.8723,234.0227 947.5197,235.4366 C1006.8144,238.2644 1085.6613,242.4013 1166.2425,247.7275 C1327.405,258.38 1495.505,273.79 1528,293 C1546.855,304.145 1560.715,324.425 1569.93,342.1487 C1572.2337,346.5797 1571.8308,345.3589 1573.5594,349.2877 " fill="none" id="Pages-to-ViewModels" style="stroke:#181818;stroke-width:1.0;"/><polygon fill="#181818" points="1575.9758,354.7796,1576.0125,344.9308,1573.9621,350.203,1568.6899,348.1526,1575.9758,354.7796" style="stroke:#181818;stroke-width:1.0;"/></g><!--link Pages to Services--><g id="link_Pages_Services"><path d="M854.2687,230.8923 C854.5821,230.8914 854.9038,230.8908 855.2338,230.8906 C860.5125,230.8865 867.8863,230.9636 876.9177,231.2684 C894.9803,231.8781 919.6731,233.3988 947.4962,237.0025 C1003.1425,244.21 1071.31,259.75 1124,293 C1147.22,307.65 1162.4931,328.4612 1173.6931,347.4612 " fill="none" id="Pages-to-Services" style="stroke:#181818;stroke-width:1.0;"/><polygon fill="#181818" points="1176.74,352.63,1175.6156,342.8455,1174.2009,348.3227,1168.7238,346.908,1176.74,352.63" style="stroke:#181818;stroke-width:1.0;"/></g><!--link Pages to Models--><g id="link_Pages_Models"><path d="M854.0875,246.6386 C854.2265,246.9073 854.367,247.1788 854.5089,247.4531 C854.7927,248.0017 855.0822,248.5612 855.3771,249.1313 C855.967,250.2714 856.5787,251.4537 857.2104,252.6748 C858.4738,255.1168 859.8173,257.7137 861.2266,260.4379 C864.0452,265.8862 867.1269,271.8434 870.3575,278.0888 C883.28,303.07 895.8286,327.3306 906.2036,347.3906 " fill="none" id="Pages-to-Models" style="stroke:#181818;stroke-width:1.0;"/><polygon fill="#181818" points="908.96,352.72,908.3784,342.8883,906.663,348.2788,901.2725,346.5635,908.96,352.72" style="stroke:#181818;stroke-width:1.0;"/></g><!--link Pages to Resources--><g id="link_Pages_Resources"><path d="M854.0254,233.3567 C854.1293,233.3885 854.2342,233.4206 854.34,233.453 C854.5515,233.5178 854.7666,233.5838 854.9852,233.6512 C856.7345,234.1897 858.7102,234.8092 860.8866,235.5083 C869.5919,238.3047 881.5062,242.3756 894.9675,247.6438 C921.89,258.18 955,273.505 981,293 C1003.44,309.82 1020.2993,329.8534 1033.6093,347.9834 " fill="none" id="Pages-to-Resources" style="stroke:#181818;stroke-width:1.0;"/><polygon fill="#181818" points="1037.16,352.82,1035.0583,343.198,1034.2011,348.7895,1028.6095,347.9323,1037.16,352.82" style="stroke:#181818;stroke-width:1.0;"/></g><!--link MainWindow.xaml.cs to Swagger API--><g id="link_MainWindow.xaml.cs_Swagger API"><path d="M1221.63,77.88 C1459.86,108.51 2126.149,194.1749 2331.029,220.5149 " fill="none" id="MainWindow.xaml.cs-to-Swagger API" style="stroke:#181818;stroke-width:1.0;stroke-dasharray:7.0,7.0;"/><polygon fill="#181818" points="2336.98,221.28,2328.5635,216.165,2332.0208,220.6424,2327.5434,224.0997,2336.98,221.28" style="stroke:#181818;stroke-width:1.0;"/><text fill="#000000" font-family="sans-serif" font-size="13" lengthAdjust="spacing" textLength="59" x="1656" y="134.4951">REST-API</text></g><!--link Swagger API to swagger_server--><g id="link_Swagger API_swagger_server"><path d="M2406.16,254.3 C2414.09,274.47 2425.8025,304.2675 2435.6538,329.3288 C2438.1166,335.5941 2440.463,341.5634 2442.605,347.0122 C2442.7389,347.3528 2442.872,347.6913 2443.0042,348.0277 C2443.0703,348.1959 2440.9411,342.7796 2441.0069,342.9468 " fill="none" id="Swagger API-to-swagger_server" style="stroke:#181818;stroke-width:1.0;"/><polygon fill="#181818" points="2443.202,348.5308,2443.632,338.6913,2441.3727,343.8774,2436.1866,341.6182,2443.202,348.5308" style="stroke:#181818;stroke-width:1.0;"/></g><!--link swagger_server to controllers--><g id="link_swagger_server_controllers"><path d="M2453.95,378.12 C2452.46,381.87 2417.962,468.3666 2400.412,512.3866 " fill="none" id="swagger_server-to-controllers" style="stroke:#181818;stroke-width:1.0;"/><polygon fill="#181818" points="2398.19,517.96,2405.2386,511.0813,2400.0417,513.3155,2397.8074,508.1186,2398.19,517.96" style="stroke:#181818;stroke-width:1.0;"/></g><!--link swagger_server to models--><g id="link_swagger_server_models"><path d="M2454.05,378.12 C2455.57,381.87 2490.5986,468.3784 2508.4186,512.3984 " fill="none" id="swagger_server-to-models" style="stroke:#181818;stroke-width:1.0;"/><polygon fill="#181818" points="2510.67,517.96,2511.0006,508.1167,2508.7938,513.3254,2503.5852,511.1186,2510.67,517.96" style="stroke:#181818;stroke-width:1.0;"/></g><!--link swagger_server to utils--><g id="link_swagger_server_utils"><path d="M2454.06,378.02 C2456.48,379.02 2534.37,411.29 2580,458 C2597.16,475.57 2608.3715,494.7113 2617.1015,512.5413 " fill="none" id="swagger_server-to-utils" style="stroke:#181818;stroke-width:1.0;"/><polygon fill="#181818" points="2619.74,517.93,2619.3748,508.0879,2617.5413,513.4394,2612.1898,511.6059,2619.74,517.93" style="stroke:#181818;stroke-width:1.0;"/></g><!--link controllers to services--><g id="link_controllers_services"><path d="M2389,566.31 C2389,578.645 2389,594.8225 2389,612.2042 C2389,620.8951 2389,629.887 2389,638.8502 C2389,643.3318 2389,647.8062 2389,652.2322 C2389,654.4452 2389,656.6461 2389,658.8297 C2389,659.9216 2389,661.0091 2389,662.0916 C2389,662.3623 2389,656.6326 2389,656.9026 " fill="none" id="controllers-to-services" style="stroke:#181818;stroke-width:1.0;"/><polygon fill="#181818" points="2389,662.9026,2393,653.9026,2389,657.9026,2385,653.9026,2389,662.9026" style="stroke:#181818;stroke-width:1.0;"/></g><!--link controllers to Supabase DB--><g id="link_controllers_Supabase DB"><path d="M2401.12,566.05 C2413.16,586.46 2433.63,615.24 2460,630 C2509.31,657.6 2530.31,637.45 2586,647 C2704.61,667.34 2835.9191,696.0807 2914.3091,713.8907 " fill="none" id="controllers-to-Supabase DB" style="stroke:#181818;stroke-width:1.0;"/><polygon fill="#181818" points="2920.16,715.22,2912.2699,709.3254,2915.2843,714.1122,2910.4975,717.1266,2920.16,715.22" style="stroke:#181818;stroke-width:1.0;"/></g><!--link services to Externe API--><g id="link_services_Externe API"><path d="M2389,779.5852 C2389,779.9869 2389,780.3897 2389,780.7938 C2389,806.65 2389,831.215 2389,851.73 " fill="none" id="services-to-Externe API" style="stroke:#181818;stroke-width:1.0;"/><polygon fill="#181818" points="2389,857.73,2393,848.73,2389,852.73,2385,848.73,2389,857.73" style="stroke:#181818;stroke-width:1.0;"/></g><!--SRC=[TLJBRiCW4Bpp5IZt-0DwgDIqZXIfaQAuZqCKHTJPkAWEME0uYIh_Uy5WZ36zM32poouph2kI_v02y6mfEAk17MVu5s6yMnFAFYaxycjo8-To7y6IN1gO7w4qoor8VX4vc5q6eg5sKzaw6_MHNGaLyCeBoZJYQan0MwGxkw2o1X76J_0XHJSSXe-m8JIzLIKN44Q7y92m4Vn4oqb220y9Iz9mGMkGOSgKy6zGJIzGnG9LbojsufFe4BSfhUV9kmJnhDmNl7JMf0smUaqP_Q1mzGB2N4sR1z1dQe4TEZJOsHh1U_iYb1K_mbYL8umJCy8fvMAeLIYaMjGYr5zpjb2BOJgoAoaA4FXfizeZJmrfy8FIgr6qKIGWBQfEiK1oTtQrfgNSQ5s2w9iyknbJcqjDIzkYNzjEM-y3Q0SF9wZpRrMZkji4r2Njiaj5leW4_BBePZMzAGyOs1l5HXtFvuzcV94POhttduu73w_20_lVWGTDOjmFv9yUakHnh3v-mDiqUvkhjKePCVgyiI4ey4T7U5h7Q2DyZEbSG5wwATXVCYJ6YZkpEcei_Xy0]--></g></svg>